<svg width="547" height="296" viewBox="0 0 547 296" fill="none" xmlns="http://www.w3.org/2000/svg">
<path d="M20.963 126.947H0V93.2011C0 81.6315 9.38544 72.2524 20.963 72.2524V53.9918C9.38544 53.9918 0 44.6127 0 33.043V1.0535H20.963V53.9918H80.0323V1.0535H100.995V126.947H80.0323V72.2524H20.963V126.947Z" fill="white"/>
<path d="M143.813 95.8683L131.999 126.947H110.326L158.025 1.0535H182.985L230.419 126.947H208.034L196.043 95.8683H143.813ZM190.18 78.2222L169.839 23.3525L149.676 78.2222H190.18Z" fill="white"/>
<path d="M232.021 73.0425V1.0535H252.895V74.096C252.895 97.7997 262.577 109.652 282.03 109.652C302.194 109.652 311.52 97.7119 311.52 74.096V1.0535H332.394V73.0425C332.394 108.949 315.073 128 282.03 128C249.253 128 232.021 108.949 232.021 73.0425Z" fill="white"/>
<path d="M346.255 85.5967L367.307 85.9479C367.84 93.4102 370.86 99.38 376.367 103.857C381.874 108.335 389.069 110.617 397.863 110.617C405.591 110.617 411.897 108.949 416.694 105.613C421.491 102.365 423.889 97.7997 423.889 91.9177C423.889 88.1427 422.645 84.9822 420.869 82.7874C419.092 80.5926 415.273 78.4856 412.164 77.1687C410.565 76.5542 408.433 75.8519 405.768 75.2373C403.104 74.6228 400.705 74.0082 398.662 73.5693C396.619 73.1303 393.866 72.6914 390.401 72.0768C380.897 70.4088 374.502 68.9163 366.951 65.3169C363.132 63.4733 360.023 61.3663 357.625 58.9959C352.739 54.2551 349.364 46.6173 349.364 36.8724C349.364 25.8985 353.539 16.9438 361.888 10.1838C370.149 3.42387 381.075 0 394.576 0C409.055 0 420.602 3.51166 429.218 10.6228C437.835 17.7339 442.365 27.1276 442.809 38.8038H421.935C421.135 32.3951 418.293 27.2154 413.407 23.2647C408.522 19.4019 402.215 17.4705 394.576 17.4705C379.742 17.4705 370.238 23.8793 370.238 35.4678C370.238 38.6283 370.86 41.262 372.636 43.369C374.413 45.5638 376.012 47.144 379.387 48.5487C382.762 49.9534 385.072 50.8313 389.868 51.8848C392.267 52.4115 394.31 52.8505 396.175 53.2017C398.04 53.5528 400.439 53.9918 403.37 54.5185C408.167 55.3964 412.341 56.2744 415.895 57.2401C419.448 58.2058 423.178 59.5226 427.087 61.3663C430.906 63.2099 434.104 65.3169 436.502 67.6872C441.388 72.5158 444.941 80.1536 444.852 89.7229C444.852 101.048 440.499 110.266 431.794 117.377C423.001 124.488 411.631 128 397.685 128C382.141 128 369.705 124.137 360.556 116.324C351.407 108.598 346.61 98.3265 346.255 85.5967Z" fill="white"/>
<path d="M486.28 19.4019H447.019V1.0535H546.504V19.4019H507.243V126.947H486.28V19.4019Z" fill="white"/>
<path fill-rule="evenodd" clip-rule="evenodd" d="M313.771 228.1C313.771 249.9 326.171 263.3 346.471 263.3C366.571 263.3 379.071 249.9 379.071 228.1C379.071 206.3 366.571 192.7 346.471 192.7C326.171 192.7 313.771 206.3 313.771 228.1ZM367.671 228.1C367.671 244.1 359.771 253.9 346.471 253.9C333.171 253.9 325.171 244.1 325.171 228.1C325.171 212 333.171 202.1 346.471 202.1C359.771 202.1 367.671 212 367.671 228.1ZM386.269 262V194H411.769C426.469 194 435.769 201.6 435.769 213.6C435.769 221.3 432.269 226.7 426.169 229.7C430.169 231.8 432.369 235.5 433.869 241.6L438.969 262H427.169L423.069 243.8C421.269 236 418.269 234.5 410.769 234.5H397.469V262H386.269ZM411.469 203H397.469V225.5H411.269C419.569 225.5 424.269 221.1 424.269 214.2C424.269 207.4 419.569 203 411.469 203ZM444.257 262V194H455.457V226.6L484.757 194H498.357L467.857 227.4L499.357 262H484.757L455.457 229.9V262H444.257ZM279.622 262L265.922 215L264.322 209L262.822 215L249.122 262H236.222L217.953 203.4H196.218V262H185.018V203.4H129.519V222.4H161.419V231.3H129.519V253H165.219V262H118.319V194H126H165.219H215.022H218.818H226.922L241.522 244.7L243.122 250.6L244.522 244.7L259.122 194H270.222L284.822 244.7L286.322 250.6L287.722 244.7L302.222 194H313.622L292.422 262H279.622ZM53.2998 194V262H64.4998L64.1998 209.5L68.5998 217.8L96.9998 262H108.7V194H97.4998L97.7998 246.4L93.4998 238.4L64.9998 194H53.2998Z" fill="white"/>
<path fill-rule="evenodd" clip-rule="evenodd" d="M496 165H51C31.1178 165 15 181.118 15 201V256C15 275.882 31.1177 292 51 292H496C515.882 292 532 275.882 532 256V201C532 181.118 515.882 165 496 165ZM51 161C28.9086 161 11 178.909 11 201V256C11 278.091 28.9086 296 51 296H496C518.091 296 536 278.091 536 256V201C536 178.909 518.091 161 496 161H51Z" fill="white"/>
</svg>
