<svg width="850" height="200" viewBox="0 0 850 200" fill="none" xmlns="http://www.w3.org/2000/svg">
<path d="M32.6045 198.354H0V145.627C0 127.549 14.5976 112.894 32.6045 112.894V84.3621C14.5976 84.3621 0 69.7074 0 51.6298V1.64609H32.6045V84.3621H124.477V1.64609H157.082V198.354H124.477V112.894H32.6045V198.354Z" fill="white"/>
<path d="M223.678 149.794L205.304 198.354H171.594L245.783 1.64609H284.604L358.379 198.354H323.564L304.913 149.794H223.678ZM295.795 122.222L264.158 36.4883L232.796 122.222H295.795Z" fill="white"/>
<path d="M360.871 114.129V1.64609H393.338V115.775C393.338 152.812 408.397 171.331 438.653 171.331C470.014 171.331 484.52 152.675 484.52 115.775V1.64609H516.986V114.129C516.986 170.233 490.046 200 438.653 200C387.673 200 360.871 170.233 360.871 114.129Z" fill="white"/>
<path d="M538.544 133.745L571.287 134.294C572.115 145.953 576.813 155.281 585.378 162.277C593.944 169.273 605.135 172.84 618.812 172.84C630.831 172.84 640.64 170.233 648.101 165.021C655.561 159.945 659.291 152.812 659.291 143.621C659.291 137.723 657.357 132.785 654.594 129.355C651.831 125.926 645.89 122.634 641.055 120.576C638.568 119.616 635.252 118.519 631.108 117.558C626.963 116.598 623.233 115.638 620.055 114.952C616.878 114.266 612.595 113.58 607.207 112.62C592.424 110.014 582.477 107.682 570.734 102.058C564.793 99.177 559.958 95.8848 556.228 92.1811C548.629 84.7737 543.379 72.8395 543.379 57.6132C543.379 40.4664 549.873 26.4746 562.859 15.9122C575.708 5.34979 592.701 0 613.7 0C636.219 0 654.18 5.48697 667.581 16.5981C680.982 27.7092 688.027 42.3868 688.718 60.631H656.252C655.008 50.6173 650.587 42.524 642.989 36.3512C635.39 30.3155 625.581 27.2977 613.7 27.2977C590.628 27.2977 575.846 37.3114 575.846 55.4184C575.846 60.3567 576.813 64.4719 579.576 67.7641C582.339 71.1934 584.826 73.6626 590.076 75.8573C595.326 78.0521 598.918 79.4239 606.378 81.07C610.108 81.893 613.286 82.5789 616.187 83.1276C619.088 83.6763 622.818 84.3621 627.377 85.1852C634.838 86.5569 641.331 87.9287 646.857 89.4376C652.383 90.9465 658.186 93.0041 664.265 95.8848C670.205 98.7654 675.179 102.058 678.909 105.761C686.508 113.306 692.034 125.24 691.896 140.192C691.896 157.888 685.126 172.291 671.587 183.402C657.91 194.513 640.226 200 618.536 200C594.358 200 575.017 193.964 560.787 181.756C546.557 169.685 539.097 153.635 538.544 133.745Z" fill="white"/>
<path d="M756.331 30.3155H695.267V1.64609H850V30.3155H788.936V198.354H756.331V30.3155Z" fill="white"/>
</svg>
