<svg width="662" height="80" viewBox="0 0 662 80" fill="none" xmlns="http://www.w3.org/2000/svg">
<path d="M13.0418 79.3416H0V58.2507C0 51.0197 5.83902 45.1578 13.0418 45.1578V33.7449C5.83902 33.7449 0 27.8829 0 20.6519V0.658436H13.0418V33.7449H49.791V0.658436H62.8328V79.3416H49.791V45.1578H13.0418V79.3416Z" fill="black"/>
<path d="M89.4712 59.9177L82.1214 79.3416H68.6375L98.3132 0.658436H113.842L143.352 79.3416H129.426L121.965 59.9177H89.4712ZM118.318 48.8889L105.663 14.5953L93.1185 48.8889H118.318Z" fill="black"/>
<path d="M144.349 45.6516V0.658436H157.335V46.31C157.335 61.1248 163.359 68.5322 175.461 68.5322C188.005 68.5322 193.808 61.07 193.808 46.31V0.658436H206.795V45.6516C206.795 68.0933 196.018 80 175.461 80C155.069 80 144.349 68.0933 144.349 45.6516Z" fill="black"/>
<path d="M215.418 53.4979L228.515 53.7174C228.846 58.3813 230.725 62.1125 234.151 64.9108C237.578 67.7092 242.054 69.1358 247.525 69.1358C252.333 69.1358 256.256 68.0933 259.24 66.0082C262.224 63.9781 263.716 61.1248 263.716 57.4486C263.716 55.0892 262.943 53.1139 261.838 51.7421C260.732 50.3704 258.356 49.0535 256.422 48.2305C255.427 47.8464 254.101 47.4074 252.443 47.0233C250.785 46.6392 249.293 46.2551 248.022 45.9808C246.751 45.7065 245.038 45.4321 242.883 45.048C236.97 44.0055 232.991 43.0727 228.294 40.823C225.917 39.6708 223.983 38.3539 222.491 36.8724C219.452 33.9095 217.352 29.1358 217.352 23.0453C217.352 16.1866 219.949 10.5898 225.144 6.36488C230.283 2.13992 237.08 0 245.48 0C254.488 0 261.672 2.19479 267.032 6.63923C272.393 11.0837 275.211 16.9547 275.487 24.2524H262.501C262.003 20.2469 260.235 17.0096 257.196 14.5405C254.156 12.1262 250.233 10.9191 245.48 10.9191C236.251 10.9191 230.338 14.9246 230.338 22.1674C230.338 24.1427 230.725 25.7888 231.83 27.1056C232.936 28.4774 233.93 29.465 236.03 30.3429C238.13 31.2209 239.567 31.7696 242.551 32.428C244.043 32.7572 245.314 33.0316 246.475 33.251C247.635 33.4705 249.127 33.7449 250.951 34.0741C253.935 34.6228 256.532 35.1715 258.743 35.775C260.953 36.3786 263.274 37.2016 265.706 38.3539C268.082 39.5062 270.072 40.823 271.564 42.3045C274.603 45.3224 276.814 50.096 276.758 56.0768C276.758 63.155 274.05 68.9163 268.635 73.3608C263.164 77.8052 256.09 80 247.414 80C237.743 80 230.007 77.5857 224.315 72.7023C218.623 67.8738 215.639 61.4541 215.418 53.4979Z" fill="black"/>
<path d="M302.532 12.1262H278.107V0.658436H340V12.1262H315.574V79.3416H302.532V12.1262Z" fill="black"/>
<path fill-rule="evenodd" clip-rule="evenodd" d="M378.368 2.921H638.333C649.948 2.921 659.364 12.3369 659.364 23.9519V56.0825C659.364 67.6976 649.948 77.1134 638.333 77.1134H378.368C366.753 77.1134 357.337 67.6976 357.337 56.0825V23.9519C357.337 12.3369 366.753 2.921 378.368 2.921ZM355 23.9519C355 11.0463 365.462 0.584229 378.368 0.584229H638.333C651.239 0.584229 661.701 11.0463 661.701 23.9519V56.0825C661.701 68.9881 651.239 79.4502 638.333 79.4502H378.368C365.462 79.4502 355 68.9881 355 56.0825V23.9519ZM550.98 60.347C539.121 60.347 531.877 52.5188 531.877 39.7834C531.877 27.048 539.121 19.103 550.98 19.103C562.722 19.103 570.024 27.048 570.024 39.7834C570.024 52.5188 562.722 60.347 550.98 60.347ZM550.98 54.8556C558.749 54.8556 563.365 49.1305 563.365 39.7834C563.365 30.3779 558.749 24.5944 550.98 24.5944C543.21 24.5944 538.536 30.3779 538.536 39.7834C538.536 49.1305 543.21 54.8556 550.98 54.8556ZM574.229 19.8625V59.5876H580.772V43.5223H588.542C592.923 43.5223 594.676 44.3986 595.727 48.9553L598.123 59.5876H605.016L602.037 47.6701C601.16 44.1065 599.875 41.945 597.538 40.7182C601.102 38.9656 603.147 35.811 603.147 31.3127C603.147 24.3024 597.714 19.8625 589.126 19.8625H574.229ZM580.772 25.1202H588.951C593.683 25.1202 596.428 27.6907 596.428 31.6632C596.428 35.6941 593.683 38.2646 588.834 38.2646H580.772V25.1202ZM608.105 19.8625V59.5876H614.648V40.835L631.765 59.5876H640.294L621.892 39.3745L639.71 19.8625H631.765L614.648 38.9072V19.8625H608.105ZM503.924 32.1305L511.927 59.5876H519.405L531.79 19.8625H525.13L516.659 49.4811L515.841 52.9278L514.965 49.4811L506.436 19.8625H499.951L491.422 49.4811L490.604 52.9278L489.67 49.4811L481.14 19.8625H476.406H474.188H445.094H422.182H417.695V59.5876H445.094V54.3299H424.238V41.6529H442.874V36.4536H424.238V25.3539H456.66V59.5876H463.203V25.3539H475.901L486.573 59.5876H494.109L502.113 32.1305L502.989 28.6254L503.924 32.1305ZM379.711 59.5876V19.8625H386.546L403.196 45.8007L405.708 50.4742L405.533 19.8625H412.076V59.5876H405.241L388.649 33.7663L386.079 28.9175L386.254 59.5876H379.711Z" fill="black"/>
</svg>
