<svg width="578" height="296" viewBox="0 0 578 296" fill="none" xmlns="http://www.w3.org/2000/svg">
<path d="M22.1711 134.881H0V99.0262C0 86.7334 9.92633 76.7682 22.1711 76.7682V57.3663C9.92633 57.3663 0 47.401 0 35.1082V1.11934H22.1711V57.3663H84.6447V1.11934H106.816V134.881H84.6447V76.7682H22.1711V134.881Z" fill="white"/>
<path d="M152.101 101.86L139.606 134.881H116.684L167.132 1.11934H193.531L243.698 134.881H220.024L207.341 101.86H152.101ZM201.141 83.1111L179.627 24.8121L158.302 83.1111H201.141Z" fill="white"/>
<path d="M245.393 77.6077V1.11934H267.47V78.727C267.47 103.912 277.71 116.505 298.284 116.505C319.609 116.505 329.474 103.819 329.474 78.727V1.11934H351.551V77.6077C351.551 115.759 333.231 136 298.284 136C263.618 136 245.393 115.759 245.393 77.6077Z" fill="white"/>
<path d="M366.21 90.9465L388.475 91.3196C389.039 99.2483 392.233 105.591 398.057 110.348C403.882 115.106 411.491 117.531 420.792 117.531C428.965 117.531 435.635 115.759 440.708 112.214C445.781 108.763 448.318 103.912 448.318 97.6626C448.318 93.6516 447.003 90.2936 445.124 87.9616C443.245 85.6296 439.205 83.3909 435.917 81.9918C434.226 81.3388 431.972 80.5926 429.153 79.9396C426.335 79.2867 423.798 78.6338 421.638 78.1674C419.477 77.701 416.565 77.2346 412.901 76.5816C402.849 74.8093 396.084 73.2236 388.099 69.3992C384.059 67.4403 380.771 65.2016 378.235 62.6831C373.068 57.6461 369.498 49.5309 369.498 39.177C369.498 27.5171 373.913 18.0027 382.744 10.8203C391.481 3.63786 403.036 0 417.316 0C432.629 0 444.842 3.73114 453.955 11.2867C463.067 18.8423 467.859 28.823 468.328 41.2291H446.251C445.406 34.4198 442.399 28.9163 437.232 24.7188C432.065 20.6145 425.395 18.5624 417.316 18.5624C401.627 18.5624 391.575 25.3717 391.575 37.6845C391.575 41.0425 392.233 43.8409 394.112 46.0796C395.991 48.4115 397.682 50.0905 401.251 51.583C404.821 53.0754 407.264 54.0082 412.337 55.1276C414.874 55.6872 417.034 56.1536 419.007 56.5267C420.98 56.8999 423.516 57.3663 426.617 57.9259C431.69 58.8587 436.105 59.7915 439.863 60.8176C443.621 61.8436 447.566 63.2428 451.7 65.2016C455.74 67.1605 459.122 69.3992 461.658 71.9177C466.825 77.048 470.583 85.1632 470.489 95.3306C470.489 107.364 465.886 117.158 456.679 124.713C447.379 132.269 435.354 136 420.604 136C404.164 136 391.011 131.896 381.335 123.594C371.659 115.385 366.586 104.472 366.21 90.9465Z" fill="white"/>
<path d="M514.305 20.6145H472.781V1.11934H578V20.6145H536.476V134.881H514.305V20.6145Z" fill="white"/>
<rect x="30" y="162" width="518" height="132" rx="38" stroke="#FFEC46" stroke-width="4"/>
<path d="M66.9708 199.341V189.153H128.151V199.341H103.439V267H91.7877V199.341H66.9708ZM134.607 267V189.153H186.957V199.341H146.205V222.277H183.927V232.361H146.205V256.812H186.957V267H134.607ZM221.364 268.254C212.03 268.254 204.663 265.903 199.264 261.201C193.9 256.464 191.218 249.985 191.218 241.765H202.817C202.852 246.885 204.489 250.891 207.728 253.782C211.002 256.673 215.548 258.118 221.364 258.118C226.659 258.118 230.891 257.004 234.06 254.774C237.265 252.51 238.867 249.48 238.867 245.684C238.867 242.688 237.717 240.267 235.419 238.421C233.155 236.541 229.323 234.956 223.924 233.667L215.408 231.629C207.537 229.749 201.789 227.136 198.167 223.792C194.579 220.414 192.786 216.025 192.786 210.626C192.786 206.064 193.935 202.076 196.234 198.662C198.533 195.249 201.755 192.602 205.899 190.721C210.079 188.84 214.955 187.899 220.528 187.899C228.923 187.899 235.593 190.094 240.539 194.482C245.519 198.871 248.132 204.862 248.376 212.455H237.143C236.864 207.962 235.227 204.444 232.231 201.901C229.236 199.324 225.283 198.035 220.372 198.035C215.669 198.035 211.821 199.167 208.825 201.431C205.83 203.66 204.332 206.534 204.332 210.052C204.332 212.873 205.481 215.172 207.78 216.948C210.079 218.69 213.893 220.205 219.222 221.494L227.634 223.479C235.436 225.325 241.183 227.99 244.875 231.473C248.602 234.956 250.465 239.484 250.465 245.057C250.465 249.724 249.264 253.799 246.86 257.282C244.457 260.765 241.078 263.465 236.725 265.38C232.371 267.296 227.251 268.254 221.364 268.254ZM253.682 199.341V189.153H314.862V199.341H290.149V267H278.499V199.341H253.682ZM321.317 267V189.153H334.17L363.898 236.227C364.804 237.69 366.04 239.762 367.607 242.444C369.175 245.126 370.742 247.843 372.31 250.595C372.205 247.773 372.118 244.917 372.048 242.026C372.013 239.101 371.996 236.924 371.996 235.496V189.153H383.647V267H370.69L344.097 224.942C343.017 223.235 341.45 220.693 339.395 217.314C337.374 213.901 335.075 209.982 332.498 205.559C332.672 210.121 332.777 214.057 332.811 217.366C332.881 220.64 332.916 223.148 332.916 224.89V267H321.317ZM394.596 267V189.153H446.946V199.341H406.194V222.277H443.916V232.361H406.194V256.812H446.946V267H394.596ZM449.797 199.341V189.153H510.977V199.341H486.265V267H474.614V199.341H449.797Z" fill="#FFEC46"/>
</svg>
